<svg width="229" height="65" viewBox="0 0 229 65" fill="none" xmlns="http://www.w3.org/2000/svg">
<path fill-rule="evenodd" clip-rule="evenodd" d="M159.845 41.4828H149.475L126.604 17.799L103.48 41.4828H93.3901L126.604 8.26935L159.845 41.4828Z" fill="#A8CF45"/>
<path d="M128.762 37.6429C128.874 37.8111 128.956 37.9792 129.07 38.149L131.34 41.4843H133.022C133.078 41.3162 135.04 38.9338 135.348 38.4869L136.638 36.609C137.114 35.9083 137.927 34.7591 138.347 34.0864C138.471 33.8613 138.612 33.6458 138.768 33.4418C138.908 33.2176 139.02 33.0214 139.16 32.7971C139.44 32.3487 139.693 31.9563 139.973 31.5359C140.141 31.3116 140.253 31.1154 140.421 30.8912C140.506 30.7791 140.534 30.6966 140.616 30.5829L143.027 27.1635C143.475 26.5188 145.017 24.3887 145.521 23.8001C145.586 23.6908 145.662 23.5877 145.745 23.4918C146.334 22.707 147.175 21.5578 147.791 20.8291L149.893 18.1944C150.678 17.1854 151.968 15.6439 152.752 14.6909C152.947 14.4963 153.089 14.3265 153.258 14.1303C153.453 13.9357 153.567 13.7379 153.735 13.5698L156.706 10.2064C156.783 10.1068 156.867 10.0131 156.958 9.92609C157.07 9.81398 157.098 9.75792 157.21 9.64581L158.444 8.21637C159.032 7.59975 159.901 6.47862 160.434 5.97411L162.648 3.47959V3C162.48 3.02803 162.453 3.08408 162.312 3.16817C162.199 3.22423 162.143 3.25225 162.003 3.33634L159.621 4.59761C159.434 4.71695 159.237 4.8201 159.032 4.90592C158.265 5.35207 157.534 5.85816 156.846 6.41945L154.604 8.29734C154.52 8.38142 154.464 8.38142 154.38 8.49198L149.643 12.922C149.48 13.0571 149.329 13.2073 149.194 13.3704L147.26 15.3324C147.204 15.3885 147.204 15.3605 147.148 15.4165L147.064 15.5286C147.06 15.5286 147.057 15.5293 147.053 15.5306C147.05 15.532 147.047 15.5341 147.044 15.5367C147.042 15.5393 147.04 15.5424 147.038 15.5459C147.037 15.5493 147.036 15.553 147.036 15.5567L145.999 16.5937C145.943 16.6843 145.878 16.7688 145.804 16.846L145.58 17.0702L144.011 18.6958C143.927 18.8079 143.927 18.836 143.842 18.9481C143.674 19.1162 143.534 19.2284 143.394 19.3965L139.47 23.7129C139.162 24.0212 138.853 24.3295 138.575 24.6658L131.256 32.9061C131.172 32.9902 131.172 33.0463 131.062 33.1304C129.154 35.3166 130.219 35.1204 128.762 37.6429Z" stroke="#FEFEFE" stroke-width="3.99997" stroke-miterlimit="10"/>
<path d="M128.762 37.6429C128.874 37.8111 128.956 37.9792 129.07 38.149L131.34 41.4843H133.022C133.078 41.3162 135.04 38.9338 135.348 38.4869L136.638 36.609C137.114 35.9083 137.927 34.7591 138.347 34.0864C138.471 33.8613 138.612 33.6458 138.768 33.4418C138.908 33.2176 139.02 33.0214 139.16 32.7971C139.44 32.3487 139.693 31.9563 139.973 31.5359C140.141 31.3116 140.253 31.1154 140.421 30.8912C140.506 30.7791 140.534 30.6966 140.616 30.5829L143.027 27.1635C143.475 26.5188 145.017 24.3887 145.521 23.8001C145.586 23.6908 145.662 23.5877 145.745 23.4918C146.334 22.707 147.175 21.5578 147.791 20.8291L149.893 18.1944C150.678 17.1854 151.968 15.6439 152.752 14.6909C152.947 14.4963 153.089 14.3265 153.258 14.1303C153.453 13.9357 153.567 13.7379 153.735 13.5698L156.706 10.2064C156.783 10.1068 156.867 10.0131 156.958 9.92609C157.07 9.81398 157.098 9.75792 157.21 9.64581L158.444 8.21637C159.032 7.59975 159.901 6.47862 160.434 5.97411L162.648 3.47959V3C162.48 3.02803 162.453 3.08408 162.312 3.16817C162.199 3.22423 162.143 3.25225 162.003 3.33634L159.621 4.59761C159.434 4.71695 159.237 4.8201 159.032 4.90592C158.265 5.35207 157.534 5.85816 156.846 6.41945L154.604 8.29734C154.52 8.38142 154.464 8.38142 154.38 8.49198L149.643 12.922C149.48 13.0571 149.329 13.2073 149.194 13.3704L147.26 15.3324C147.204 15.3885 147.204 15.3605 147.148 15.4165L147.064 15.5286C147.06 15.5286 147.057 15.5293 147.053 15.5307C147.05 15.532 147.047 15.5341 147.044 15.5367C147.042 15.5393 147.04 15.5424 147.038 15.5459C147.037 15.5493 147.036 15.553 147.036 15.5567L145.999 16.5937C145.943 16.6843 145.878 16.7688 145.804 16.846L145.58 17.0702L144.011 18.6958C143.927 18.8079 143.927 18.836 143.842 18.9481C143.674 19.1162 143.534 19.2284 143.394 19.3965L139.47 23.7129C139.162 24.0212 138.853 24.3295 138.575 24.6658L131.256 32.9061C131.172 32.9902 131.172 33.0463 131.062 33.1304C129.154 35.3166 130.219 35.1204 128.762 37.6429Z" fill="#2478BD"/>
<path d="M131.34 41.4828L131.256 32.9061L124.391 25.7589C121.644 26.4036 120.495 27.5527 119.43 30.2154L131.34 41.4828Z" fill="#2478BD"/>
<path d="M9.5296 41.9889C5.99804 41.9889 3.53156 41.3162 2.10212 39.9148C0.700706 38.5414 0 36.131 0 32.6555V27.0483C0 23.6008 0.700706 21.1623 2.10212 19.789C3.50353 18.3875 5.97002 17.7149 9.47355 17.7149H11.1272C14.4626 17.7149 16.873 18.3595 18.3585 19.6223C19.844 20.9116 20.6008 23.0138 20.6553 25.9567H17.0412C16.9571 24.0493 16.5086 22.7335 15.7238 22.0047C14.9391 21.276 13.3975 20.9397 11.1272 20.9397H9.4751C7.06467 20.9397 5.49509 21.3321 4.7648 22.1464C4.00804 22.9593 3.64367 24.8652 3.64367 27.8362V31.9003C3.64367 34.8977 4.00804 36.8052 4.7648 37.618C5.52156 38.4309 7.09115 38.8248 9.4751 38.8248H11.1288C13.4255 38.8248 14.9967 38.4324 15.8095 37.6476C16.6223 36.8628 17.0427 35.4334 17.0427 33.3313V32.9342H20.6584V33.3827C20.6584 36.4658 19.9296 38.68 18.4722 39.9973C17.0131 41.3427 14.5747 41.9889 11.1552 41.9889H9.5296ZM42.4083 35.6529V33.1584C42.4083 32.0373 41.8477 31.1965 40.6986 30.6919C39.5494 30.1594 37.7276 29.9072 35.2331 29.9072C32.9628 29.9072 31.4212 30.1874 30.6645 30.776C29.8797 31.3366 29.4873 32.4297 29.4873 34.0849C29.4873 35.9348 29.9077 37.168 30.7205 37.7831C31.5333 38.4277 33.159 38.7361 35.6255 38.7361C37.8117 38.7361 39.4933 38.4558 40.6705 37.9232C41.8477 37.3907 42.4083 36.6339 42.4083 35.6529ZM42.6029 39.1845C42.0365 40.1952 41.119 40.9631 40.0243 41.3427C38.8471 41.7631 37.2215 41.9873 35.1474 41.9873C31.4492 41.9873 28.9532 41.4548 27.6919 40.4178C26.4306 39.3527 25.814 37.3907 25.814 34.5038C25.7657 33.1899 25.9169 31.8764 26.2625 30.6079C26.4992 29.7239 26.9981 28.9324 27.6935 28.3376C28.4252 27.7704 29.2969 27.412 30.216 27.3005C31.7835 27.0654 33.368 26.9622 34.9528 26.9922C36.6045 26.9419 38.2553 27.1211 39.8577 27.5248C40.884 27.806 41.7837 28.4289 42.4083 29.2905V25.2264C42.4083 23.2925 42.0439 22.0312 41.3152 21.4426C40.5584 20.8821 38.6805 20.6018 35.6535 20.6018C33.4953 20.6018 32.0378 20.826 31.3091 21.3025C30.5804 21.7509 30.216 22.6198 30.188 23.8811H26.6844V23.3205C26.6844 21.3025 27.3291 19.873 28.6464 19.0042C29.9637 18.1353 32.234 17.7149 35.4293 17.7149C37.34 17.685 39.2505 17.788 41.147 18.0232C42.4363 18.2178 43.4173 18.5557 44.0339 19.0322C44.7061 19.5366 45.2134 20.2292 45.4914 21.0222C45.7717 21.835 45.9118 23.1804 45.9118 25.1143V41.6775H42.7431L42.6029 39.1845ZM52.9189 41.679V18.0232H56.3103V21.2745C56.7401 20.1218 57.5643 19.1586 58.6366 18.5557C59.6737 17.9952 61.0751 17.7149 62.8128 17.7149C65.3914 17.7149 67.1852 18.3315 68.2239 19.5647C69.2609 20.826 69.7934 23.0122 69.7934 26.1794V26.374H66.2619V25.6733C66.2619 23.7659 65.9536 22.5061 65.3665 21.8615C64.7499 21.1888 63.6288 20.8805 61.9751 20.8805C60.0412 20.8805 58.6117 21.4411 57.7709 22.5342C56.902 23.6273 56.4535 25.4211 56.4535 27.9452V41.6775L52.9189 41.679ZM77.1322 27.5528H90.5312V26.6279C90.5312 24.4136 90.1388 22.9001 89.354 22.1153C88.5412 21.3305 86.9716 20.9381 84.6173 20.9381H82.9916C80.6372 20.9381 79.0957 21.3305 78.3109 22.1153C77.5261 22.9001 77.1337 24.4121 77.1337 26.6279L77.1322 27.5528ZM83.0181 41.9873C79.4865 41.9873 77.0201 41.3147 75.6186 39.9132C74.2172 38.5399 73.5165 36.1294 73.5165 32.6539V27.0483C73.5165 23.5728 74.2172 21.1623 75.6186 19.789C76.992 18.3875 79.4585 17.7149 82.9901 17.7149H84.6157C88.1473 17.7149 90.6418 18.3875 92.0432 19.789C93.4446 21.1623 94.1733 23.5728 94.1733 27.0483V30.6359L77.1322 30.6639C77.1322 30.8881 77.1322 31.17 77.1041 31.4487V32.6555C77.1041 35.122 77.4965 36.7476 78.2813 37.5604C79.0381 38.4013 80.6082 38.8217 82.9916 38.8217H84.6173C86.7474 38.8217 88.2049 38.5134 89.0161 37.9263C89.857 37.3097 90.3335 36.2447 90.4456 34.7311H94.1173C93.9491 37.3097 93.1083 39.1596 91.6508 40.2807C90.1653 41.4299 87.839 41.9904 84.6718 41.9904L83.0181 41.9873ZM160.29 21.0222V18.0247H163.177V12.6978H166.681V18.0232H178.26V21.0206H166.684V34.0273C166.684 35.9052 166.992 37.1665 167.579 37.8391C168.196 38.4838 169.345 38.8201 171.055 38.8201C172.736 38.8201 173.886 38.5118 174.474 37.8672C175.063 37.2225 175.37 35.9332 175.37 34.0273V33.3546H178.929V33.5493C178.929 36.8846 178.369 39.0989 177.276 40.248C176.154 41.4252 173.884 41.9858 170.409 41.9858C167.69 41.9858 165.812 41.3692 164.747 40.1639C163.71 38.9307 163.177 36.7445 163.177 33.5493V21.0222H160.29ZM201.383 31.8972V27.8331C201.383 24.8621 200.991 22.9562 200.234 22.1433C199.477 21.3305 197.879 20.9366 195.469 20.9366H193.815C191.405 20.9366 189.835 21.329 189.105 22.1433C188.348 22.9562 187.984 24.8621 187.984 27.8331V31.8972C187.984 34.8946 188.348 36.8021 189.105 37.6149C189.862 38.4277 191.431 38.8217 193.815 38.8217H195.469C197.879 38.8217 199.449 38.4013 200.234 37.5885C200.991 36.7725 201.383 34.8682 201.383 31.8972ZM193.87 41.9873C190.338 41.9873 187.872 41.3147 186.442 39.9132C185.041 38.5399 184.34 36.1294 184.34 32.682V27.0483C184.34 23.5728 185.041 21.1623 186.442 19.789C187.844 18.3875 190.31 17.7149 193.814 17.7149H195.467C198.999 17.7149 201.465 18.3875 202.895 19.789C204.296 21.1623 204.997 23.5728 204.997 27.0483V32.682C204.997 36.1575 204.296 38.5679 202.895 39.9413C201.493 41.3146 199.027 41.9873 195.495 41.9873H193.87ZM211.247 41.679V18.0232H214.667V21.2745C215.095 20.1299 215.907 19.1691 216.964 18.5557C218.029 17.9952 219.402 17.7149 221.168 17.7149C223.718 17.7149 225.54 18.3315 226.579 19.5647C227.616 20.826 228.148 23.0122 228.148 26.1794V26.374H224.592V25.6733C224.592 23.7659 224.312 22.5061 223.696 21.8615C223.108 21.1888 221.987 20.8805 220.305 20.8805C218.371 20.8805 216.97 21.4411 216.101 22.5342C215.232 23.6273 214.812 25.4211 214.812 27.9452V41.6775L211.247 41.679Z" fill="#2478BD"/>
<path d="M92.353 49.4709V48.0414H102.331V49.4709H98.0708V61.3829H96.5853V49.4709H92.353ZM104.153 55.7492H109.506V55.3848C109.506 54.4895 109.338 53.8993 109.03 53.591C108.693 53.2547 108.077 53.1145 107.152 53.1145H106.479C105.554 53.1145 104.938 53.2547 104.629 53.591C104.321 53.8993 104.153 54.4863 104.153 55.3848V55.7492ZM106.507 61.495C105.106 61.495 104.125 61.2147 103.564 60.6821C103.004 60.1216 102.723 59.1686 102.723 57.7952V55.553C102.723 54.1516 103.004 53.1986 103.564 52.638C104.097 52.1055 105.078 51.8252 106.479 51.8252H107.152C108.553 51.8252 109.534 52.1055 110.095 52.638C110.655 53.1986 110.936 54.1516 110.936 55.553V56.9824H104.153V57.7937C104.153 58.7466 104.293 59.3897 104.601 59.7276C104.91 60.0655 105.554 60.2337 106.479 60.2337H107.152C107.993 60.2337 108.581 60.1216 108.89 59.8693C109.072 59.713 109.218 59.5196 109.32 59.3021C109.421 59.0847 109.475 58.848 109.478 58.6081H110.936C110.852 59.6171 110.515 60.3738 109.927 60.8223C109.338 61.2707 108.413 61.495 107.152 61.495H106.507ZM119.344 61.495C117.943 61.495 116.934 61.2147 116.373 60.6821C115.813 60.1216 115.532 59.1686 115.532 57.7952V55.553C115.532 54.1796 115.813 53.1986 116.373 52.638C116.934 52.1055 117.915 51.8252 119.316 51.8252H119.961C121.306 51.8252 122.258 52.0775 122.848 52.582C123.436 53.1145 123.743 53.9273 123.773 55.1045H122.315C122.287 54.3478 122.121 53.8152 121.809 53.5349C121.498 53.2547 120.884 53.1145 119.959 53.1145H119.315C118.362 53.1145 117.719 53.2827 117.437 53.591C117.128 53.9273 116.988 54.6841 116.988 55.8613V57.4573C116.988 58.6641 117.128 59.4193 117.437 59.7541C117.745 60.0624 118.362 60.2306 119.315 60.2306H119.959C120.884 60.2306 121.501 60.0624 121.837 59.7541C122.174 59.4458 122.314 58.8852 122.314 58.0444V57.8762H123.771V58.0709C123.771 59.3041 123.491 60.173 122.902 60.7055C122.314 61.238 121.333 61.4903 119.987 61.4903L119.344 61.495ZM128.762 61.3829V48.0414H130.107V53.2547C130.318 52.7636 130.709 52.3723 131.2 52.1616C131.823 51.9121 132.492 51.7975 133.162 51.8252C134.395 51.8252 135.265 52.0775 135.77 52.582C136.247 53.0585 136.499 53.9554 136.499 55.1902V61.3829H135.126V55.4969C135.126 54.5159 134.986 53.8713 134.677 53.563C134.397 53.2547 133.836 53.0865 132.996 53.0865C132.015 53.0865 131.286 53.3107 130.837 53.7592C130.389 54.2076 130.137 54.9083 130.137 55.8893V61.3829H128.762ZM141.795 61.3829V51.9654H143.112V53.2547C143.339 52.775 143.726 52.3888 144.205 52.1616C144.839 51.915 145.516 51.8005 146.195 51.8252C147.429 51.8252 148.298 52.0775 148.803 52.582C149.28 53.0585 149.532 53.9554 149.532 55.1902V61.3829H148.159V55.4969C148.159 54.5159 147.991 53.8713 147.71 53.563C147.43 53.2547 146.87 53.0865 146.029 53.0865C145.048 53.0865 144.319 53.3107 143.87 53.7592C143.365 54.3492 143.114 55.1147 143.17 55.8893V61.3829H141.795ZM161.22 57.4589V55.8628C161.22 54.6857 161.08 53.9289 160.772 53.5926C160.463 53.2843 159.819 53.1161 158.864 53.1161H158.219C157.238 53.1161 156.623 53.2843 156.312 53.5926C156.032 53.9299 155.891 54.6867 155.891 55.8628V57.4589C155.891 58.6657 156.032 59.4209 156.34 59.7557C156.62 60.064 157.265 60.2321 158.218 60.2321H158.862C159.815 60.2321 160.459 60.064 160.77 59.7261C161.05 59.4209 161.217 58.6641 161.217 57.4589H161.22ZM158.222 61.495C156.821 61.495 155.84 61.2147 155.28 60.6821C154.719 60.1216 154.439 59.1686 154.439 57.7952V55.553C154.439 54.1516 154.719 53.1986 155.28 52.638C155.84 52.1055 156.821 51.8252 158.222 51.8252H158.867C160.269 51.8252 161.25 52.1055 161.81 52.638C162.371 53.1986 162.651 54.1516 162.651 55.553V57.7952C162.651 59.1686 162.399 60.1216 161.838 60.6821C161.278 61.2147 160.297 61.495 158.895 61.495H158.222ZM167.64 61.3829V48.0414H169.041V61.3829H167.64ZM180.813 57.4589V55.8628C180.813 54.6857 180.645 53.9289 180.365 53.5926C180.057 53.2843 179.412 53.1161 178.457 53.1161H177.785C176.832 53.1161 176.215 53.2843 175.907 53.5926C175.626 53.9289 175.458 54.6857 175.458 55.8628V57.4589C175.458 58.6657 175.626 59.4209 175.907 59.7557C176.215 60.064 176.832 60.2321 177.785 60.2321H178.457C179.41 60.2321 180.053 60.064 180.335 59.7261C180.642 59.4209 180.81 58.6641 180.81 57.4589H180.813ZM177.816 61.495C176.414 61.495 175.433 61.2147 174.873 60.6821C174.312 60.1216 174.032 59.1686 174.032 57.7952V55.553C174.032 54.1516 174.312 53.1986 174.873 52.638C175.433 52.1055 176.386 51.8252 177.788 51.8252H178.46C179.862 51.8252 180.843 52.1055 181.403 52.638C181.964 53.1986 182.244 54.1516 182.244 55.553V57.7952C182.244 59.1686 181.964 60.1216 181.403 60.6821C180.871 61.2147 179.862 61.495 178.46 61.495H177.816ZM193.737 57.4309V55.8893C193.737 54.9083 193.485 54.2076 193.037 53.7592C192.588 53.3107 191.86 53.0865 190.85 53.0865C189.926 53.0865 189.337 53.2547 189.029 53.5926C188.72 53.9305 188.552 54.6857 188.552 55.8628V57.4589C188.552 58.6657 188.72 59.3928 189.029 59.7292C189.337 60.0655 189.924 60.2353 190.85 60.2353C191.86 60.2353 192.588 60.011 193.037 59.5626C193.479 59.1126 193.731 58.4119 193.731 57.4309H193.737ZM195.111 51.9654V61.2692C195.111 62.6426 194.859 63.6236 194.298 64.1561C193.765 64.7167 192.812 64.9689 191.439 64.9689H190.794C189.561 64.9689 188.664 64.7447 188.104 64.2962C187.543 63.8478 187.208 63.119 187.123 62.082H188.544C188.543 62.32 188.592 62.5556 188.689 62.7731C188.785 62.9906 188.927 63.185 189.105 63.3433C189.627 63.6304 190.221 63.7572 190.815 63.7076H191.431C192.05 63.7585 192.668 63.6113 193.197 63.2872C193.383 63.1251 193.529 62.9212 193.621 62.6923C193.714 62.4634 193.751 62.2159 193.73 61.9699V60.0359C193.495 60.5174 193.112 60.9105 192.637 61.1571C192.053 61.4077 191.421 61.5227 190.787 61.4934C189.441 61.4934 188.49 61.2131 187.956 60.6526C187.395 60.12 187.115 59.139 187.115 57.7937V55.5514C187.115 54.178 187.395 53.1971 187.956 52.6645C188.488 52.1039 189.441 51.8237 190.787 51.8237C191.453 51.7969 192.117 51.9315 192.721 52.2161C193.205 52.4827 193.581 52.9092 193.786 53.4228V51.9654H195.111ZM200.492 49.639V48.043H201.858V49.639H200.492ZM200.492 61.3829V51.9654H201.858V61.3829H200.492ZM208.312 55.7492H213.637V55.3848C213.637 54.4895 213.469 53.8993 213.161 53.591C212.853 53.2547 212.236 53.1145 211.283 53.1145H210.632C209.707 53.1145 209.091 53.2547 208.754 53.591C208.446 53.8993 208.306 54.4863 208.306 55.3848L208.312 55.7492ZM210.666 61.495C209.237 61.495 208.256 61.2147 207.695 60.6821C207.135 60.1216 206.855 59.1686 206.855 57.7952V55.553C206.855 54.1516 207.135 53.1986 207.695 52.638C208.256 52.1055 209.237 51.8252 210.638 51.8252H211.278C212.68 51.8252 213.689 52.1055 214.249 52.638C214.81 53.1986 215.09 54.1516 215.09 55.553V56.9824H208.306C208.309 57.086 208.3 57.1895 208.278 57.2907V57.7968C208.278 58.7498 208.446 59.3928 208.754 59.7307C209.063 60.0686 209.679 60.2368 210.632 60.2368H211.278C212.119 60.2368 212.708 60.1247 213.044 59.8724C213.217 59.7102 213.356 59.515 213.452 59.2984C213.548 59.0818 213.6 58.8482 213.605 58.6112H215.062C215.006 59.6202 214.67 60.377 214.081 60.8254C213.493 61.2739 212.568 61.4981 211.306 61.4981L210.666 61.495ZM219.72 58.58H221.149V58.7747C221.12 59.0052 221.155 59.2391 221.249 59.4516C221.342 59.6641 221.492 59.8472 221.682 59.9814C222.018 60.2057 222.747 60.3178 223.84 60.3178C225.046 60.3178 225.774 60.2057 226.054 59.9814C226.334 59.7572 226.474 59.3368 226.474 58.6921C226.526 58.253 226.406 57.811 226.138 57.4589C225.914 57.2643 225.325 57.1226 224.428 57.0945C224.092 57.0665 223.616 57.0385 223.055 57.0385C221.794 56.9824 221.037 56.8983 220.785 56.7582C220.453 56.5865 220.187 56.3108 220.028 55.9734C219.861 55.4967 219.785 54.9927 219.804 54.4879C219.804 53.4509 220.056 52.7502 220.588 52.3858C221.121 52.0214 222.298 51.8252 224.092 51.8252C225.493 51.8252 226.446 51.9934 226.951 52.3578C227.455 52.6951 227.708 53.3118 227.708 54.2076H226.306V54.1235C226.315 53.942 226.269 53.762 226.174 53.607C226.079 53.4521 225.939 53.3293 225.774 53.2547C225.075 53.0409 224.344 52.9554 223.616 53.0024C222.578 53.0024 221.906 53.1145 221.626 53.3107C221.345 53.4789 221.205 53.8993 221.205 54.4879C221.199 54.7507 221.218 55.0134 221.261 55.2727C221.324 55.4155 221.433 55.5337 221.569 55.609C221.85 55.7772 222.466 55.8613 223.419 55.8613C223.605 55.8815 223.793 55.8909 223.98 55.8893C224.765 55.9173 225.381 55.9734 225.83 56.0014C226.165 56.0338 226.495 56.1092 226.811 56.2257C227.18 56.3961 227.485 56.6811 227.68 57.0385C227.895 57.5323 227.991 58.0701 227.96 58.6081C227.994 59.1462 227.898 59.6847 227.68 60.1776C227.497 60.5322 227.225 60.8327 226.891 61.0492C226.556 61.2656 226.17 61.3903 225.772 61.4109C225.13 61.4755 224.484 61.5036 223.838 61.495C222.184 61.495 221.063 61.3003 220.529 60.9344C219.997 60.542 219.716 59.8413 219.716 58.8043L219.72 58.58Z" fill="#2478BD"/>
</svg>
