<?xml version="1.0" encoding="UTF-8"?>
<!DOCTYPE svg PUBLIC "-//W3C//DTD SVG 1.1//EN" "http://www.w3.org/Graphics/SVG/1.1/DTD/svg11.dtd">
<!-- Creator: CorelDRAW X7 -->
<svg xmlns="http://www.w3.org/2000/svg" xml:space="preserve" width="8.5in" height="2.5in" version="1.1" style="shape-rendering:geometricPrecision; text-rendering:geometricPrecision; image-rendering:optimizeQuality; fill-rule:evenodd; clip-rule:evenodd"
viewBox="0 0 8500 2500"
 xmlns:xlink="http://www.w3.org/1999/xlink">
 <defs>
  <style type="text/css">
   <![CDATA[
    .str0 {stroke:#FEFEFE;stroke-width:55.5551}
    .fil1 {fill:none;fill-rule:nonzero}
    .fil0 {fill:#A8CF45}
    .fil2 {fill:#2478BD;fill-rule:nonzero}
   ]]>
  </style>
 </defs>
 <g id="Layer_x0020_1">
  <metadata id="CorelCorpID_0Corel-Layer"/>
  <g id="_2429800868368">
   <polygon class="fil0" points="5883,1525 5513,1525 4697,680 3872,1525 3512,1525 4697,340 "/>
   <g>
    <path class="fil1 str0" d="M4774 1388c4,6 7,12 11,18l81 119 60 0c2,-6 72,-91 83,-107l46 -67c17,-25 46,-66 61,-90 5,-9 9,-15 15,-23 5,-8 9,-15 14,-23 10,-16 19,-30 29,-45 6,-8 10,-15 16,-23 3,-4 4,-7 7,-11l86 -122c16,-23 71,-99 89,-120 3,-4 4,-7 8,-11 21,-28 51,-69 73,-95l75 -94c28,-36 74,-91 102,-125 7,-7 12,-13 18,-20 7,-7 11,-14 17,-20l106 -120c4,-5 5,-6 9,-10 4,-4 5,-6 9,-10l44 -51c21,-22 52,-62 71,-80l79 -89 0 -17c-6,1 -7,3 -12,6 -4,2 -6,3 -11,6l-85 45c-7,4 -13,8 -21,11 -23,12 -58,38 -78,54l-80 67c-3,3 -5,3 -8,7l-169 158c-6,5 -11,10 -16,16l-69 70c-2,2 -2,1 -4,3l-3 4c0,0 -1,0 -1,1l-37 37c-3,4 -3,5 -7,9 -3,3 -5,5 -8,8l-56 58c-3,4 -3,5 -6,9 -6,6 -11,10 -16,16l-140 154c-11,11 -22,22 -32,34l-261 294c-3,3 -3,5 -7,8 -68,78 -30,71 -82,161zm1209 -1250l0 -1 0 1z"/>
    <path id="1" class="fil2" d="M4774 1388c4,6 7,12 11,18l81 119 60 0c2,-6 72,-91 83,-107l46 -67c17,-25 46,-66 61,-90 5,-9 9,-15 15,-23 5,-8 9,-15 14,-23 10,-16 19,-30 29,-45 6,-8 10,-15 16,-23 3,-4 4,-7 7,-11l86 -122c16,-23 71,-99 89,-120 3,-4 4,-7 8,-11 21,-28 51,-69 73,-95l75 -94c28,-36 74,-91 102,-125 7,-7 12,-13 18,-20 7,-7 11,-14 17,-20l106 -120c4,-5 5,-6 9,-10 4,-4 5,-6 9,-10l44 -51c21,-22 52,-62 71,-80l79 -89 0 -17c-6,1 -7,3 -12,6 -4,2 -6,3 -11,6l-85 45c-7,4 -13,8 -21,11 -23,12 -58,38 -78,54l-80 67c-3,3 -5,3 -8,7l-169 158c-6,5 -11,10 -16,16l-69 70c-2,2 -2,1 -4,3l-3 4c0,0 -1,0 -1,1l-37 37c-3,4 -3,5 -7,9 -3,3 -5,5 -8,8l-56 58c-3,4 -3,5 -6,9 -6,6 -11,10 -16,16l-140 154c-11,11 -22,22 -32,34l-261 294c-3,3 -3,5 -7,8 -68,78 -30,71 -82,161zm1209 -1250l0 -1 0 1z"/>
   </g>
   <path class="fil2" d="M4866 1525l-3 -306 -245 -255c-98,23 -139,64 -177,159l425 402z"/>
   <path class="fil2" d="M520 1543c-126,0 -214,-24 -265,-74 -50,-49 -75,-135 -75,-259l0 -200c0,-123 25,-210 75,-259 50,-50 138,-74 263,-74l59 0c119,0 205,23 258,68 53,46 80,121 82,226l-129 0c-3,-68 -19,-115 -47,-141 -28,-26 -83,-38 -164,-38l-59 0c-86,0 -142,14 -168,43 -27,29 -40,97 -40,203l0 145c0,107 13,175 40,204 27,29 83,43 168,43l59 0c82,0 138,-14 167,-42 29,-28 44,-79 44,-154l0 -14 129 0 0 16c0,110 -26,189 -78,236 -52,48 -139,71 -261,71l-58 0zm1173 -226l0 -89c0,-40 -20,-70 -61,-88 -41,-19 -106,-28 -195,-28 -81,0 -136,10 -163,31 -28,20 -42,59 -42,118 0,66 15,110 44,132 29,23 87,34 175,34 78,0 138,-10 180,-29 42,-19 62,-46 62,-81zm7 126c-19,35 -50,61 -92,77 -42,15 -100,23 -174,23 -132,0 -221,-19 -266,-56 -45,-38 -67,-108 -67,-211 0,-59 5,-106 16,-139 10,-34 27,-61 51,-81 21,-18 50,-30 90,-37 39,-7 95,-11 169,-11 77,0 135,7 175,19 41,13 71,34 91,63l0 -145c0,-69 -13,-114 -39,-135 -27,-20 -94,-30 -202,-30 -77,0 -129,8 -155,25 -26,16 -39,47 -40,92l-125 0 0 -20c0,-72 23,-123 70,-154 47,-31 128,-46 242,-46 89,0 157,4 204,11 46,7 81,19 103,36 25,19 42,43 52,71 10,29 15,77 15,146l0 591 -113 0 -5 -89zm368 89l0 -844 121 0 0 116c18,-44 45,-76 83,-97 37,-20 87,-30 149,-30 92,0 156,22 193,66 37,45 56,123 56,236l0 7 -126 0 0 -25c0,-68 -11,-113 -32,-136 -22,-24 -62,-35 -121,-35 -69,0 -120,20 -150,59 -31,39 -47,103 -47,193l0 490 -126 0zm864 -504l478 0 0 -33c0,-79 -14,-133 -42,-161 -29,-28 -85,-42 -169,-42l-58 0c-84,0 -139,14 -167,42 -28,28 -42,82 -42,161l0 33zm210 515c-126,0 -214,-24 -264,-74 -50,-49 -75,-135 -75,-259l0 -200c0,-124 25,-210 75,-259 49,-50 137,-74 263,-74l58 0c126,0 215,24 265,74 50,49 76,135 76,259l0 128 -608 1c0,8 0,18 -1,28 0,10 0,25 0,43 0,88 14,146 42,175 27,30 83,45 168,45l58 0c76,0 128,-11 157,-32 30,-22 47,-60 51,-114l131 0c-6,92 -36,158 -88,198 -53,41 -136,61 -249,61l-59 0zm2757 -748l0 -107 103 0 0 -190 125 0 0 190 413 0 0 107 -413 0 0 464c0,67 11,112 32,136 22,23 63,35 124,35 60,0 101,-11 122,-34 21,-23 32,-69 32,-137l0 -24 127 0 0 7c0,119 -20,198 -59,239 -40,42 -121,62 -245,62 -97,0 -164,-22 -202,-65 -37,-44 -56,-122 -56,-236l0 -447 -103 0zm1466 388l0 -145c0,-106 -14,-174 -41,-203 -27,-29 -84,-43 -170,-43l-59 0c-86,0 -142,14 -168,43 -27,29 -40,97 -40,203l0 145c0,107 13,175 40,204 27,29 83,43 168,43l59 0c86,0 142,-15 170,-44 27,-29 41,-97 41,-203zm-268 360c-126,0 -214,-24 -265,-74 -50,-49 -75,-135 -75,-258l0 -201c0,-124 25,-210 75,-259 50,-50 138,-74 263,-74l59 0c126,0 214,24 265,74 50,49 75,135 75,259l0 201c0,124 -25,210 -75,259 -50,49 -138,73 -264,73l-58 0zm620 -11l0 -844 122 0 0 116c18,-44 45,-76 82,-97 38,-20 87,-30 150,-30 91,0 156,22 193,66 37,45 56,123 56,236l0 7 -127 0 0 -25c0,-68 -10,-113 -32,-136 -21,-24 -61,-35 -121,-35 -69,0 -119,20 -150,59 -31,39 -46,103 -46,193l0 490 -127 0z"/>
   <path class="fil2" d="M3475 1810l0 -51 356 0 0 51 -152 0 0 425 -53 0 0 -425 -151 0zm421 224l191 0 0 -13c0,-32 -6,-53 -17,-64 -12,-12 -34,-17 -67,-17l-24 0c-33,0 -55,5 -66,17 -11,11 -17,32 -17,64l0 13zm84 205c-50,0 -85,-10 -105,-29 -20,-20 -30,-54 -30,-103l0 -80c0,-50 10,-84 30,-104 19,-19 54,-29 104,-29l24 0c50,0 85,10 105,29 20,20 30,54 30,104l0 51 -242 0c0,3 0,7 0,11 0,4 0,10 0,18 0,34 5,57 16,69 11,12 34,18 67,18l24 0c30,0 51,-4 62,-13 12,-9 19,-24 21,-45l52 0c-3,36 -15,63 -36,79 -21,16 -54,24 -99,24l-23 0zm458 0c-50,0 -86,-10 -106,-29 -20,-20 -30,-54 -30,-103l0 -80c0,-49 10,-84 30,-104 20,-19 55,-29 105,-29l23 0c48,0 82,9 103,27 21,19 32,48 33,90l-52 0c-1,-27 -7,-46 -18,-56 -11,-10 -33,-15 -66,-15l-23 0c-34,0 -57,6 -67,17 -11,12 -16,39 -16,81l0 57c0,43 5,70 16,82 11,11 33,17 67,17l23 0c33,0 55,-6 67,-17 12,-11 17,-31 17,-61l0 -6 52 0 0 7c0,44 -10,75 -31,94 -21,19 -56,28 -104,28l-23 0zm336 -4l0 -476 48 0 0 186c8,-18 21,-31 39,-39 17,-8 41,-12 70,-12 44,0 75,9 93,27 17,17 26,49 26,93l0 221 -49 0 0 -210c0,-35 -5,-58 -16,-69 -10,-11 -30,-17 -60,-17 -35,0 -61,8 -77,24 -16,16 -25,41 -25,76l0 196 -49 0zm465 0l0 -336 47 0 0 46c9,-18 22,-31 39,-39 18,-8 42,-12 71,-12 44,0 75,9 93,27 17,17 26,49 26,93l0 221 -49 0 0 -210c0,-35 -6,-58 -16,-69 -10,-11 -30,-17 -60,-17 -35,0 -61,8 -77,24 -16,16 -25,42 -25,76l0 196 -49 0zm693 -140l0 -57c0,-42 -5,-69 -16,-81 -11,-11 -34,-17 -68,-17l-23 0c-35,0 -57,6 -68,17 -10,12 -15,39 -15,81l0 57c0,43 5,70 16,82 10,11 33,17 67,17l23 0c34,0 57,-6 68,-18 10,-11 16,-38 16,-81zm-107 144c-50,0 -85,-10 -105,-29 -20,-20 -30,-54 -30,-103l0 -80c0,-50 10,-84 30,-104 20,-19 55,-29 105,-29l23 0c50,0 85,10 105,29 20,20 30,54 30,104l0 80c0,49 -9,83 -29,103 -20,19 -55,29 -105,29l-24 0zm336 -4l0 -476 50 0 0 476 -50 0zm470 -140l0 -57c0,-42 -6,-69 -16,-81 -11,-11 -34,-17 -68,-17l-24 0c-34,0 -56,6 -67,17 -10,12 -16,39 -16,81l0 57c0,43 6,70 16,82 11,11 33,17 67,17l24 0c34,0 57,-6 67,-18 11,-11 17,-38 17,-81zm-107 144c-50,0 -85,-10 -105,-29 -20,-20 -30,-54 -30,-103l0 -80c0,-50 10,-84 30,-104 20,-19 54,-29 104,-29l24 0c50,0 85,10 105,29 20,20 30,54 30,104l0 80c0,49 -10,83 -30,103 -19,19 -55,29 -105,29l-23 0zm568 -145l0 -55c0,-35 -9,-60 -25,-76 -16,-16 -42,-24 -78,-24 -33,0 -54,6 -65,18 -11,12 -17,39 -17,81l0 57c0,43 6,69 17,81 11,12 32,18 65,18 36,0 62,-8 78,-24 16,-16 25,-41 25,-76zm49 -195l0 332c0,49 -9,84 -29,103 -19,20 -53,29 -102,29l-23 0c-44,0 -76,-8 -96,-24 -20,-16 -32,-42 -35,-79l51 0c2,22 9,37 20,45 11,8 31,13 61,13l22 0c29,0 50,-5 63,-15 12,-9 19,-25 19,-47l0 -69c-10,18 -22,32 -39,40 -16,8 -38,12 -66,12 -48,0 -82,-10 -101,-30 -20,-19 -30,-54 -30,-102l0 -80c0,-49 10,-84 30,-103 19,-20 53,-30 101,-30 29,0 52,5 69,14 17,9 29,23 38,43l0 -52 47 0zm192 -83l0 -57 49 0 0 57 -49 0zm0 419l0 -336 49 0 0 336 -49 0zm279 -201l190 0 0 -13c0,-32 -6,-53 -17,-64 -11,-12 -33,-17 -67,-17l-23 0c-33,0 -55,5 -67,17 -11,11 -16,32 -16,64l0 13zm84 205c-51,0 -86,-10 -106,-29 -20,-20 -30,-54 -30,-103l0 -80c0,-50 10,-84 30,-104 20,-19 55,-29 105,-29l23 0c50,0 86,10 106,29 20,20 30,54 30,104l0 51 -242 0c0,3 0,7 -1,11 0,4 0,10 0,18 0,34 6,57 17,69 11,12 33,18 67,18l23 0c30,0 51,-4 63,-13 11,-9 18,-24 20,-45l52 0c-2,36 -14,63 -35,79 -21,16 -54,24 -99,24l-23 0zm323 -104l51 0 0 7c0,21 6,35 19,43 12,8 38,12 77,12 43,0 69,-4 79,-12 10,-8 15,-23 15,-46 0,-22 -4,-36 -12,-44 -8,-7 -29,-12 -61,-13 -12,-1 -29,-2 -49,-2 -45,-2 -72,-5 -81,-10 -12,-7 -22,-16 -27,-28 -5,-12 -8,-30 -8,-53 0,-37 9,-62 28,-75 19,-13 61,-20 125,-20 50,0 84,6 102,19 18,12 27,34 27,66l-50 0 0 -3c0,-15 -7,-25 -19,-31 -13,-6 -39,-9 -77,-9 -37,0 -61,4 -71,11 -10,6 -15,21 -15,42 0,14 1,23 2,28 2,5 6,9 11,12 10,6 32,9 66,9 9,1 16,1 20,1 28,1 50,3 66,4 16,2 28,5 35,8 14,7 25,17 31,29 7,13 10,32 10,56 0,25 -3,43 -10,56 -6,13 -17,24 -33,34 -7,5 -19,8 -35,10 -17,2 -39,3 -69,3 -59,0 -99,-7 -118,-20 -19,-14 -29,-39 -29,-76l0 -8z"/>
  </g>
 </g>
</svg>
